<mxfile host="app.diagrams.net" modified="2024-01-12T05:09:28.643Z" agent="Mozilla/5.0 (Macintosh; Intel Mac OS X 10_15_7) AppleWebKit/605.1.15 (KHTML, like Gecko) Version/17.1 Safari/605.1.15" etag="ZDNhyqDAACbBwk5_MeXc" version="22.1.18" type="device">
  <diagram name="Trang-1" id="R46lQm_Rw6Zmzm8sMg9Q">
    <mxGraphModel dx="3240" dy="2319" grid="1" gridSize="10" guides="1" tooltips="1" connect="1" arrows="1" fold="1" page="1" pageScale="1" pageWidth="827" pageHeight="1169" math="0" shadow="0">
      <root>
        <mxCell id="0" />
        <mxCell id="1" parent="0" />
        <mxCell id="mt5Nm10OnFp4rmJsfRZl-2" value="COFFEESHOP" style="rounded=1;whiteSpace=wrap;html=1;fillColor=#fff2cc;strokeColor=#d6b656;" parent="1" vertex="1">
          <mxGeometry x="310" y="220" width="120" height="60" as="geometry" />
        </mxCell>
        <mxCell id="mt5Nm10OnFp4rmJsfRZl-3" value="BAN" style="rounded=1;whiteSpace=wrap;html=1;fillColor=#d5e8d4;strokeColor=#82b366;" parent="1" vertex="1">
          <mxGeometry x="125" y="40" width="120" height="60" as="geometry" />
        </mxCell>
        <mxCell id="mt5Nm10OnFp4rmJsfRZl-5" value="SOBAN" style="ellipse;whiteSpace=wrap;html=1;fillColor=#dae8fc;strokeColor=#6c8ebf;" parent="1" vertex="1">
          <mxGeometry x="-50" y="68" width="90" height="60" as="geometry" />
        </mxCell>
        <mxCell id="mt5Nm10OnFp4rmJsfRZl-6" value="TINHTRANG" style="ellipse;whiteSpace=wrap;html=1;fillColor=#dae8fc;strokeColor=#6c8ebf;" parent="1" vertex="1">
          <mxGeometry x="-50" width="90" height="60" as="geometry" />
        </mxCell>
        <mxCell id="mt5Nm10OnFp4rmJsfRZl-9" value="HOADON" style="rounded=1;whiteSpace=wrap;html=1;fillColor=#d5e8d4;strokeColor=#82b366;" parent="1" vertex="1">
          <mxGeometry x="130" y="578" width="120" height="60" as="geometry" />
        </mxCell>
        <mxCell id="mt5Nm10OnFp4rmJsfRZl-12" value="IDHOADON" style="ellipse;whiteSpace=wrap;html=1;fillColor=#dae8fc;strokeColor=#6c8ebf;" parent="1" vertex="1">
          <mxGeometry x="-100" y="815" width="90" height="60" as="geometry" />
        </mxCell>
        <mxCell id="mt5Nm10OnFp4rmJsfRZl-13" value="TINHTRANG" style="ellipse;whiteSpace=wrap;html=1;fillColor=#dae8fc;strokeColor=#6c8ebf;" parent="1" vertex="1">
          <mxGeometry x="10" y="820" width="90" height="60" as="geometry" />
        </mxCell>
        <mxCell id="mt5Nm10OnFp4rmJsfRZl-14" value="NGAYTHANHTOAN" style="ellipse;whiteSpace=wrap;html=1;fillColor=#dae8fc;strokeColor=#6c8ebf;" parent="1" vertex="1">
          <mxGeometry x="110" y="805" width="120" height="70" as="geometry" />
        </mxCell>
        <mxCell id="mt5Nm10OnFp4rmJsfRZl-18" value="THANHTIEN" style="ellipse;whiteSpace=wrap;html=1;fillColor=#dae8fc;strokeColor=#6c8ebf;" parent="1" vertex="1">
          <mxGeometry x="245" y="810" width="120" height="70" as="geometry" />
        </mxCell>
        <mxCell id="mt5Nm10OnFp4rmJsfRZl-20" value="CO" style="rhombus;whiteSpace=wrap;html=1;fillColor=#f8cecc;strokeColor=#b85450;" parent="1" vertex="1">
          <mxGeometry x="145" y="190" width="80" height="80" as="geometry" />
        </mxCell>
        <mxCell id="mt5Nm10OnFp4rmJsfRZl-23" value="1" style="text;html=1;align=center;verticalAlign=middle;resizable=0;points=[];autosize=1;strokeColor=none;fillColor=none;" parent="1" vertex="1">
          <mxGeometry x="145" y="160" width="30" height="30" as="geometry" />
        </mxCell>
        <mxCell id="mt5Nm10OnFp4rmJsfRZl-24" value="1" style="text;html=1;align=center;verticalAlign=middle;resizable=0;points=[];autosize=1;strokeColor=none;fillColor=none;" parent="1" vertex="1">
          <mxGeometry x="145" y="280" width="30" height="30" as="geometry" />
        </mxCell>
        <mxCell id="mt5Nm10OnFp4rmJsfRZl-25" value="CTHD" style="rounded=1;whiteSpace=wrap;html=1;fillColor=#d5e8d4;strokeColor=#82b366;" parent="1" vertex="1">
          <mxGeometry x="-260" y="578" width="120" height="60" as="geometry" />
        </mxCell>
        <mxCell id="mt5Nm10OnFp4rmJsfRZl-26" value="" style="endArrow=none;html=1;rounded=0;entryX=1;entryY=0.5;entryDx=0;entryDy=0;exitX=0;exitY=0.5;exitDx=0;exitDy=0;" parent="1" source="mt5Nm10OnFp4rmJsfRZl-3" target="mt5Nm10OnFp4rmJsfRZl-5" edge="1">
          <mxGeometry width="50" height="50" relative="1" as="geometry">
            <mxPoint x="160" y="38" as="sourcePoint" />
            <mxPoint x="310" y="290" as="targetPoint" />
          </mxGeometry>
        </mxCell>
        <mxCell id="mt5Nm10OnFp4rmJsfRZl-27" value="" style="endArrow=none;html=1;rounded=0;entryX=1;entryY=0.5;entryDx=0;entryDy=0;exitX=0;exitY=0.5;exitDx=0;exitDy=0;" parent="1" source="mt5Nm10OnFp4rmJsfRZl-3" target="mt5Nm10OnFp4rmJsfRZl-6" edge="1">
          <mxGeometry width="50" height="50" relative="1" as="geometry">
            <mxPoint x="170" y="40" as="sourcePoint" />
            <mxPoint x="310" y="290" as="targetPoint" />
          </mxGeometry>
        </mxCell>
        <mxCell id="mt5Nm10OnFp4rmJsfRZl-28" value="" style="endArrow=none;html=1;rounded=0;entryX=0.5;entryY=1;entryDx=0;entryDy=0;exitX=0.5;exitY=0;exitDx=0;exitDy=0;" parent="1" source="mt5Nm10OnFp4rmJsfRZl-20" target="mt5Nm10OnFp4rmJsfRZl-3" edge="1">
          <mxGeometry width="50" height="50" relative="1" as="geometry">
            <mxPoint x="260" y="340" as="sourcePoint" />
            <mxPoint x="310" y="290" as="targetPoint" />
          </mxGeometry>
        </mxCell>
        <mxCell id="mt5Nm10OnFp4rmJsfRZl-29" value="" style="endArrow=none;html=1;rounded=0;entryX=0.5;entryY=1;entryDx=0;entryDy=0;exitX=0.5;exitY=0;exitDx=0;exitDy=0;" parent="1" source="mt5Nm10OnFp4rmJsfRZl-9" target="mt5Nm10OnFp4rmJsfRZl-20" edge="1">
          <mxGeometry width="50" height="50" relative="1" as="geometry">
            <mxPoint x="260" y="350" as="sourcePoint" />
            <mxPoint x="310" y="300" as="targetPoint" />
          </mxGeometry>
        </mxCell>
        <mxCell id="mt5Nm10OnFp4rmJsfRZl-31" value="" style="endArrow=none;html=1;rounded=0;entryX=1;entryY=0.5;entryDx=0;entryDy=0;exitX=0.25;exitY=0;exitDx=0;exitDy=0;" parent="1" source="mt5Nm10OnFp4rmJsfRZl-2" target="mt5Nm10OnFp4rmJsfRZl-3" edge="1">
          <mxGeometry width="50" height="50" relative="1" as="geometry">
            <mxPoint x="380" y="220" as="sourcePoint" />
            <mxPoint x="250" y="140" as="targetPoint" />
            <Array as="points">
              <mxPoint x="340" y="70" />
            </Array>
          </mxGeometry>
        </mxCell>
        <mxCell id="mt5Nm10OnFp4rmJsfRZl-33" value="" style="endArrow=none;html=1;rounded=0;entryX=0.5;entryY=1;entryDx=0;entryDy=0;exitX=0.5;exitY=0;exitDx=0;exitDy=0;" parent="1" source="mt5Nm10OnFp4rmJsfRZl-12" target="mt5Nm10OnFp4rmJsfRZl-9" edge="1">
          <mxGeometry width="50" height="50" relative="1" as="geometry">
            <mxPoint x="260" y="390" as="sourcePoint" />
            <mxPoint x="310" y="340" as="targetPoint" />
          </mxGeometry>
        </mxCell>
        <mxCell id="mt5Nm10OnFp4rmJsfRZl-34" value="" style="endArrow=none;html=1;rounded=0;entryX=0.5;entryY=1;entryDx=0;entryDy=0;exitX=0.5;exitY=0;exitDx=0;exitDy=0;" parent="1" source="mt5Nm10OnFp4rmJsfRZl-13" target="mt5Nm10OnFp4rmJsfRZl-9" edge="1">
          <mxGeometry width="50" height="50" relative="1" as="geometry">
            <mxPoint x="260" y="390" as="sourcePoint" />
            <mxPoint x="310" y="340" as="targetPoint" />
          </mxGeometry>
        </mxCell>
        <mxCell id="mt5Nm10OnFp4rmJsfRZl-35" value="" style="endArrow=none;html=1;rounded=0;entryX=0.5;entryY=1;entryDx=0;entryDy=0;exitX=0.5;exitY=0;exitDx=0;exitDy=0;" parent="1" source="mt5Nm10OnFp4rmJsfRZl-14" target="mt5Nm10OnFp4rmJsfRZl-9" edge="1">
          <mxGeometry width="50" height="50" relative="1" as="geometry">
            <mxPoint x="360" y="450" as="sourcePoint" />
            <mxPoint x="320" y="350" as="targetPoint" />
          </mxGeometry>
        </mxCell>
        <mxCell id="mt5Nm10OnFp4rmJsfRZl-36" value="" style="endArrow=none;html=1;rounded=0;exitX=0.5;exitY=0;exitDx=0;exitDy=0;entryX=0.5;entryY=1;entryDx=0;entryDy=0;" parent="1" source="mt5Nm10OnFp4rmJsfRZl-18" edge="1" target="mt5Nm10OnFp4rmJsfRZl-9">
          <mxGeometry width="50" height="50" relative="1" as="geometry">
            <mxPoint x="280" y="410" as="sourcePoint" />
            <mxPoint x="170" y="410" as="targetPoint" />
          </mxGeometry>
        </mxCell>
        <mxCell id="mt5Nm10OnFp4rmJsfRZl-37" value="THUOC&lt;br&gt;" style="rhombus;whiteSpace=wrap;html=1;fillColor=#f8cecc;strokeColor=#b85450;" parent="1" vertex="1">
          <mxGeometry x="-60" y="568" width="80" height="80" as="geometry" />
        </mxCell>
        <mxCell id="mt5Nm10OnFp4rmJsfRZl-38" value="" style="endArrow=none;html=1;rounded=0;entryX=1;entryY=0.5;entryDx=0;entryDy=0;exitX=0;exitY=0.5;exitDx=0;exitDy=0;" parent="1" source="mt5Nm10OnFp4rmJsfRZl-37" target="mt5Nm10OnFp4rmJsfRZl-25" edge="1">
          <mxGeometry width="50" height="50" relative="1" as="geometry">
            <mxPoint x="-120" y="420" as="sourcePoint" />
            <mxPoint x="-70" y="370" as="targetPoint" />
          </mxGeometry>
        </mxCell>
        <mxCell id="mt5Nm10OnFp4rmJsfRZl-39" value="" style="endArrow=none;html=1;rounded=0;entryX=0;entryY=0.5;entryDx=0;entryDy=0;exitX=1;exitY=0.5;exitDx=0;exitDy=0;" parent="1" source="mt5Nm10OnFp4rmJsfRZl-37" target="mt5Nm10OnFp4rmJsfRZl-9" edge="1">
          <mxGeometry width="50" height="50" relative="1" as="geometry">
            <mxPoint x="-120" y="420" as="sourcePoint" />
            <mxPoint x="-70" y="370" as="targetPoint" />
          </mxGeometry>
        </mxCell>
        <mxCell id="mt5Nm10OnFp4rmJsfRZl-41" value="TENDOUONG" style="ellipse;whiteSpace=wrap;html=1;fillColor=#dae8fc;strokeColor=#6c8ebf;" parent="1" vertex="1">
          <mxGeometry x="-450" y="630" width="90" height="60" as="geometry" />
        </mxCell>
        <mxCell id="mt5Nm10OnFp4rmJsfRZl-42" value="SL" style="ellipse;whiteSpace=wrap;html=1;fillColor=#dae8fc;strokeColor=#6c8ebf;" parent="1" vertex="1">
          <mxGeometry x="-440" y="550" width="90" height="60" as="geometry" />
        </mxCell>
        <mxCell id="mt5Nm10OnFp4rmJsfRZl-43" value="" style="endArrow=none;html=1;rounded=0;entryX=1;entryY=0.5;entryDx=0;entryDy=0;exitX=0;exitY=0.5;exitDx=0;exitDy=0;" parent="1" source="mt5Nm10OnFp4rmJsfRZl-25" target="mt5Nm10OnFp4rmJsfRZl-41" edge="1">
          <mxGeometry width="50" height="50" relative="1" as="geometry">
            <mxPoint x="-120" y="300" as="sourcePoint" />
            <mxPoint x="-70" y="250" as="targetPoint" />
          </mxGeometry>
        </mxCell>
        <mxCell id="mt5Nm10OnFp4rmJsfRZl-44" value="" style="endArrow=none;html=1;rounded=0;entryX=0;entryY=0.5;entryDx=0;entryDy=0;exitX=1;exitY=0.5;exitDx=0;exitDy=0;" parent="1" source="mt5Nm10OnFp4rmJsfRZl-42" target="mt5Nm10OnFp4rmJsfRZl-25" edge="1">
          <mxGeometry width="50" height="50" relative="1" as="geometry">
            <mxPoint x="-120" y="300" as="sourcePoint" />
            <mxPoint x="-70" y="250" as="targetPoint" />
          </mxGeometry>
        </mxCell>
        <mxCell id="mt5Nm10OnFp4rmJsfRZl-50" style="edgeStyle=orthogonalEdgeStyle;rounded=0;orthogonalLoop=1;jettySize=auto;html=1;exitX=0.5;exitY=1;exitDx=0;exitDy=0;" parent="1" edge="1">
          <mxGeometry relative="1" as="geometry">
            <mxPoint x="640" y="140" as="sourcePoint" />
            <mxPoint x="640" y="140" as="targetPoint" />
          </mxGeometry>
        </mxCell>
        <mxCell id="mt5Nm10OnFp4rmJsfRZl-64" value="" style="endArrow=none;html=1;rounded=0;entryX=1;entryY=0.5;entryDx=0;entryDy=0;exitX=0;exitY=0.5;exitDx=0;exitDy=0;" parent="1" source="mt5Nm10OnFp4rmJsfRZl-63" edge="1">
          <mxGeometry width="50" height="50" relative="1" as="geometry">
            <mxPoint x="580" y="260" as="sourcePoint" />
            <mxPoint x="764" y="68" as="targetPoint" />
          </mxGeometry>
        </mxCell>
        <mxCell id="mt5Nm10OnFp4rmJsfRZl-65" value="" style="endArrow=none;html=1;rounded=0;entryX=0;entryY=0.5;entryDx=0;entryDy=0;exitX=1;exitY=0.5;exitDx=0;exitDy=0;" parent="1" target="mt5Nm10OnFp4rmJsfRZl-57" edge="1">
          <mxGeometry width="50" height="50" relative="1" as="geometry">
            <mxPoint x="980.9999999999995" y="68" as="sourcePoint" />
            <mxPoint x="630" y="210" as="targetPoint" />
          </mxGeometry>
        </mxCell>
        <mxCell id="mt5Nm10OnFp4rmJsfRZl-71" value="CHUCVU" style="rounded=1;whiteSpace=wrap;html=1;fillColor=#d5e8d4;strokeColor=#82b366;" parent="1" vertex="1">
          <mxGeometry x="520" y="220" width="120" height="60" as="geometry" />
        </mxCell>
        <mxCell id="mt5Nm10OnFp4rmJsfRZl-73" value="IDCHUCVU&lt;br&gt;" style="ellipse;whiteSpace=wrap;html=1;fillColor=#dae8fc;strokeColor=#6c8ebf;" parent="1" vertex="1">
          <mxGeometry x="750" y="280" width="90" height="60" as="geometry" />
        </mxCell>
        <mxCell id="mt5Nm10OnFp4rmJsfRZl-74" value="LUONGCOBAN" style="ellipse;whiteSpace=wrap;html=1;fillColor=#dae8fc;strokeColor=#6c8ebf;" parent="1" vertex="1">
          <mxGeometry x="740" y="200" width="100" height="60" as="geometry" />
        </mxCell>
        <mxCell id="mt5Nm10OnFp4rmJsfRZl-75" value="" style="endArrow=none;html=1;rounded=0;entryX=0;entryY=0.5;entryDx=0;entryDy=0;exitX=1;exitY=0.5;exitDx=0;exitDy=0;" parent="1" source="mt5Nm10OnFp4rmJsfRZl-71" target="mt5Nm10OnFp4rmJsfRZl-73" edge="1">
          <mxGeometry width="50" height="50" relative="1" as="geometry">
            <mxPoint x="590" y="330" as="sourcePoint" />
            <mxPoint x="650" y="220" as="targetPoint" />
          </mxGeometry>
        </mxCell>
        <mxCell id="mt5Nm10OnFp4rmJsfRZl-76" value="" style="endArrow=none;html=1;rounded=0;entryX=0;entryY=0.5;entryDx=0;entryDy=0;exitX=1;exitY=0.5;exitDx=0;exitDy=0;" parent="1" source="mt5Nm10OnFp4rmJsfRZl-71" target="mt5Nm10OnFp4rmJsfRZl-74" edge="1">
          <mxGeometry width="50" height="50" relative="1" as="geometry">
            <mxPoint x="600" y="270" as="sourcePoint" />
            <mxPoint x="650" y="220" as="targetPoint" />
          </mxGeometry>
        </mxCell>
        <mxCell id="mt5Nm10OnFp4rmJsfRZl-80" value="" style="endArrow=none;html=1;rounded=0;entryX=0;entryY=0.5;entryDx=0;entryDy=0;exitX=1;exitY=0.5;exitDx=0;exitDy=0;" parent="1" source="mt5Nm10OnFp4rmJsfRZl-77" edge="1">
          <mxGeometry width="50" height="50" relative="1" as="geometry">
            <mxPoint x="30" y="400" as="sourcePoint" />
            <mxPoint x="-60" y="68" as="targetPoint" />
          </mxGeometry>
        </mxCell>
        <mxCell id="mt5Nm10OnFp4rmJsfRZl-86" value="" style="endArrow=none;html=1;rounded=0;entryX=0.5;entryY=1;entryDx=0;entryDy=0;exitX=0.5;exitY=0;exitDx=0;exitDy=0;" parent="1" target="mt5Nm10OnFp4rmJsfRZl-84" edge="1">
          <mxGeometry width="50" height="50" relative="1" as="geometry">
            <mxPoint x="-210" y="38" as="sourcePoint" />
            <mxPoint x="-40" y="150" as="targetPoint" />
          </mxGeometry>
        </mxCell>
        <mxCell id="mt5Nm10OnFp4rmJsfRZl-88" value="" style="endArrow=none;html=1;rounded=0;entryX=0.5;entryY=1;entryDx=0;entryDy=0;exitX=0.5;exitY=0;exitDx=0;exitDy=0;" parent="1" target="mt5Nm10OnFp4rmJsfRZl-85" edge="1">
          <mxGeometry width="50" height="50" relative="1" as="geometry">
            <mxPoint x="-210" y="38" as="sourcePoint" />
            <mxPoint x="-40" y="150" as="targetPoint" />
          </mxGeometry>
        </mxCell>
        <mxCell id="mt5Nm10OnFp4rmJsfRZl-89" value="ACCOUNT" style="rounded=1;whiteSpace=wrap;html=1;fillColor=#d5e8d4;strokeColor=#82b366;" parent="1" vertex="1">
          <mxGeometry x="520" y="578" width="120" height="60" as="geometry" />
        </mxCell>
        <mxCell id="mt5Nm10OnFp4rmJsfRZl-90" value="" style="endArrow=none;html=1;rounded=0;entryX=0.75;entryY=1;entryDx=0;entryDy=0;exitX=0;exitY=0;exitDx=0;exitDy=0;" parent="1" source="mt5Nm10OnFp4rmJsfRZl-89" target="mt5Nm10OnFp4rmJsfRZl-2" edge="1">
          <mxGeometry width="50" height="50" relative="1" as="geometry">
            <mxPoint x="480" y="620" as="sourcePoint" />
            <mxPoint x="370" y="300" as="targetPoint" />
            <Array as="points">
              <mxPoint x="400" y="578" />
              <mxPoint x="400" y="490" />
            </Array>
          </mxGeometry>
        </mxCell>
        <mxCell id="mt5Nm10OnFp4rmJsfRZl-92" value="ID&lt;br&gt;" style="ellipse;whiteSpace=wrap;html=1;fillColor=#dae8fc;strokeColor=#6c8ebf;" parent="1" vertex="1">
          <mxGeometry x="760" y="810" width="100" height="60" as="geometry" />
        </mxCell>
        <mxCell id="mt5Nm10OnFp4rmJsfRZl-93" value="USERNAME" style="ellipse;whiteSpace=wrap;html=1;fillColor=#dae8fc;strokeColor=#6c8ebf;" parent="1" vertex="1">
          <mxGeometry x="760" y="730" width="100" height="60" as="geometry" />
        </mxCell>
        <mxCell id="mt5Nm10OnFp4rmJsfRZl-94" value="PASSWORD" style="ellipse;whiteSpace=wrap;html=1;fillColor=#dae8fc;strokeColor=#6c8ebf;" parent="1" vertex="1">
          <mxGeometry x="760" y="648" width="100" height="60" as="geometry" />
        </mxCell>
        <mxCell id="mt5Nm10OnFp4rmJsfRZl-95" value="NAME" style="ellipse;whiteSpace=wrap;html=1;fillColor=#dae8fc;strokeColor=#6c8ebf;" parent="1" vertex="1">
          <mxGeometry x="760" y="570" width="100" height="60" as="geometry" />
        </mxCell>
        <mxCell id="mt5Nm10OnFp4rmJsfRZl-96" value="EMAIL" style="ellipse;whiteSpace=wrap;html=1;fillColor=#dae8fc;strokeColor=#6c8ebf;" parent="1" vertex="1">
          <mxGeometry x="760" y="500" width="100" height="50" as="geometry" />
        </mxCell>
        <mxCell id="mt5Nm10OnFp4rmJsfRZl-97" value="" style="endArrow=none;html=1;rounded=0;entryX=0;entryY=0.5;entryDx=0;entryDy=0;exitX=1;exitY=0.5;exitDx=0;exitDy=0;" parent="1" source="mt5Nm10OnFp4rmJsfRZl-89" target="mt5Nm10OnFp4rmJsfRZl-92" edge="1">
          <mxGeometry width="50" height="50" relative="1" as="geometry">
            <mxPoint x="550" y="520" as="sourcePoint" />
            <mxPoint x="610" y="410" as="targetPoint" />
          </mxGeometry>
        </mxCell>
        <mxCell id="mt5Nm10OnFp4rmJsfRZl-98" value="" style="endArrow=none;html=1;rounded=0;entryX=0;entryY=0.5;entryDx=0;entryDy=0;exitX=1;exitY=0.5;exitDx=0;exitDy=0;" parent="1" source="mt5Nm10OnFp4rmJsfRZl-89" target="mt5Nm10OnFp4rmJsfRZl-93" edge="1">
          <mxGeometry width="50" height="50" relative="1" as="geometry">
            <mxPoint x="620" y="500" as="sourcePoint" />
            <mxPoint x="685" y="435" as="targetPoint" />
          </mxGeometry>
        </mxCell>
        <mxCell id="mt5Nm10OnFp4rmJsfRZl-99" value="" style="endArrow=none;html=1;rounded=0;entryX=0;entryY=0.5;entryDx=0;entryDy=0;" parent="1" target="mt5Nm10OnFp4rmJsfRZl-94" edge="1">
          <mxGeometry width="50" height="50" relative="1" as="geometry">
            <mxPoint x="640" y="608" as="sourcePoint" />
            <mxPoint x="695" y="445" as="targetPoint" />
          </mxGeometry>
        </mxCell>
        <mxCell id="mt5Nm10OnFp4rmJsfRZl-100" value="" style="endArrow=none;html=1;rounded=0;entryX=1;entryY=0.5;entryDx=0;entryDy=0;exitX=0;exitY=0.5;exitDx=0;exitDy=0;" parent="1" source="mt5Nm10OnFp4rmJsfRZl-95" target="mt5Nm10OnFp4rmJsfRZl-89" edge="1">
          <mxGeometry width="50" height="50" relative="1" as="geometry">
            <mxPoint x="640" y="520" as="sourcePoint" />
            <mxPoint x="705" y="455" as="targetPoint" />
          </mxGeometry>
        </mxCell>
        <mxCell id="mt5Nm10OnFp4rmJsfRZl-101" value="" style="endArrow=none;html=1;rounded=0;entryX=1;entryY=0.5;entryDx=0;entryDy=0;exitX=0;exitY=0.5;exitDx=0;exitDy=0;" parent="1" source="mt5Nm10OnFp4rmJsfRZl-96" target="mt5Nm10OnFp4rmJsfRZl-89" edge="1">
          <mxGeometry width="50" height="50" relative="1" as="geometry">
            <mxPoint x="650" y="530" as="sourcePoint" />
            <mxPoint x="715" y="465" as="targetPoint" />
          </mxGeometry>
        </mxCell>
        <mxCell id="mt5Nm10OnFp4rmJsfRZl-103" value="" style="endArrow=none;html=1;rounded=0;entryX=0;entryY=0.5;entryDx=0;entryDy=0;exitX=1;exitY=0.5;exitDx=0;exitDy=0;" parent="1" source="mt5Nm10OnFp4rmJsfRZl-2" target="mt5Nm10OnFp4rmJsfRZl-71" edge="1">
          <mxGeometry width="50" height="50" relative="1" as="geometry">
            <mxPoint x="520" y="390" as="sourcePoint" />
            <mxPoint x="570" y="340" as="targetPoint" />
            <Array as="points" />
          </mxGeometry>
        </mxCell>
        <mxCell id="mt5Nm10OnFp4rmJsfRZl-104" value="KHO" style="rounded=1;whiteSpace=wrap;html=1;fillColor=#d5e8d4;strokeColor=#82b366;" parent="1" vertex="1">
          <mxGeometry x="500" y="40" width="120" height="60" as="geometry" />
        </mxCell>
        <mxCell id="mt5Nm10OnFp4rmJsfRZl-105" value="" style="endArrow=none;html=1;rounded=0;entryX=0.75;entryY=0;entryDx=0;entryDy=0;exitX=0;exitY=0.5;exitDx=0;exitDy=0;" parent="1" source="mt5Nm10OnFp4rmJsfRZl-104" target="mt5Nm10OnFp4rmJsfRZl-2" edge="1">
          <mxGeometry width="50" height="50" relative="1" as="geometry">
            <mxPoint x="550" y="290" as="sourcePoint" />
            <mxPoint x="600" y="240" as="targetPoint" />
            <Array as="points">
              <mxPoint x="400" y="70" />
            </Array>
          </mxGeometry>
        </mxCell>
        <mxCell id="mt5Nm10OnFp4rmJsfRZl-108" value="" style="endArrow=none;html=1;rounded=0;entryX=0.5;entryY=1;entryDx=0;entryDy=0;exitX=0.5;exitY=0;exitDx=0;exitDy=0;" parent="1" source="mt5Nm10OnFp4rmJsfRZl-106" edge="1">
          <mxGeometry width="50" height="50" relative="1" as="geometry">
            <mxPoint x="760" y="150" as="sourcePoint" />
            <mxPoint x="704" y="98" as="targetPoint" />
          </mxGeometry>
        </mxCell>
        <mxCell id="mt5Nm10OnFp4rmJsfRZl-112" value="IDKHO" style="ellipse;whiteSpace=wrap;html=1;fillColor=#dae8fc;strokeColor=#6c8ebf;" parent="1" vertex="1">
          <mxGeometry x="734" y="-10" width="100" height="60" as="geometry" />
        </mxCell>
        <mxCell id="mt5Nm10OnFp4rmJsfRZl-113" value="SOLUONGCON" style="ellipse;whiteSpace=wrap;html=1;fillColor=#dae8fc;strokeColor=#6c8ebf;" parent="1" vertex="1">
          <mxGeometry x="740" y="130" width="100" height="60" as="geometry" />
        </mxCell>
        <mxCell id="mt5Nm10OnFp4rmJsfRZl-114" value="" style="endArrow=none;html=1;rounded=0;exitX=1;exitY=0.5;exitDx=0;exitDy=0;entryX=0;entryY=0.5;entryDx=0;entryDy=0;" parent="1" source="mt5Nm10OnFp4rmJsfRZl-104" target="mt5Nm10OnFp4rmJsfRZl-112" edge="1">
          <mxGeometry width="50" height="50" relative="1" as="geometry">
            <mxPoint x="780" y="240" as="sourcePoint" />
            <mxPoint x="830" y="190" as="targetPoint" />
          </mxGeometry>
        </mxCell>
        <mxCell id="mt5Nm10OnFp4rmJsfRZl-116" value="" style="endArrow=none;html=1;rounded=0;entryX=0;entryY=0.5;entryDx=0;entryDy=0;exitX=1;exitY=0.5;exitDx=0;exitDy=0;" parent="1" source="mt5Nm10OnFp4rmJsfRZl-104" target="mt5Nm10OnFp4rmJsfRZl-113" edge="1">
          <mxGeometry width="50" height="50" relative="1" as="geometry">
            <mxPoint x="780" y="240" as="sourcePoint" />
            <mxPoint x="830" y="190" as="targetPoint" />
          </mxGeometry>
        </mxCell>
        <mxCell id="mt5Nm10OnFp4rmJsfRZl-117" value="1" style="text;html=1;align=center;verticalAlign=middle;resizable=0;points=[];autosize=1;strokeColor=none;fillColor=none;" parent="1" vertex="1">
          <mxGeometry x="-110" y="568" width="30" height="30" as="geometry" />
        </mxCell>
        <mxCell id="mt5Nm10OnFp4rmJsfRZl-118" value="1" style="text;html=1;align=center;verticalAlign=middle;resizable=0;points=[];autosize=1;strokeColor=none;fillColor=none;" parent="1" vertex="1">
          <mxGeometry x="60" y="578" width="30" height="30" as="geometry" />
        </mxCell>
        <mxCell id="mt5Nm10OnFp4rmJsfRZl-119" value="DOUONG" style="rounded=1;whiteSpace=wrap;html=1;fillColor=#d5e8d4;strokeColor=#82b366;" parent="1" vertex="1">
          <mxGeometry x="310" y="-100" width="120" height="60" as="geometry" />
        </mxCell>
        <mxCell id="mt5Nm10OnFp4rmJsfRZl-120" value="" style="endArrow=none;html=1;rounded=0;entryX=0.5;entryY=1;entryDx=0;entryDy=0;exitX=0.5;exitY=0;exitDx=0;exitDy=0;" parent="1" source="mt5Nm10OnFp4rmJsfRZl-2" target="mt5Nm10OnFp4rmJsfRZl-119" edge="1">
          <mxGeometry width="50" height="50" relative="1" as="geometry">
            <mxPoint x="620" y="10" as="sourcePoint" />
            <mxPoint x="670" y="-40" as="targetPoint" />
          </mxGeometry>
        </mxCell>
        <mxCell id="mt5Nm10OnFp4rmJsfRZl-121" value="IDFOOD" style="ellipse;whiteSpace=wrap;html=1;fillColor=#dae8fc;strokeColor=#6c8ebf;" parent="1" vertex="1">
          <mxGeometry x="200" y="-210" width="100" height="60" as="geometry" />
        </mxCell>
        <mxCell id="mt5Nm10OnFp4rmJsfRZl-122" value="TENFOOD" style="ellipse;whiteSpace=wrap;html=1;fillColor=#dae8fc;strokeColor=#6c8ebf;" parent="1" vertex="1">
          <mxGeometry x="320" y="-210" width="100" height="60" as="geometry" />
        </mxCell>
        <mxCell id="mt5Nm10OnFp4rmJsfRZl-123" value="GIA" style="ellipse;whiteSpace=wrap;html=1;fillColor=#dae8fc;strokeColor=#6c8ebf;" parent="1" vertex="1">
          <mxGeometry x="440" y="-210" width="100" height="60" as="geometry" />
        </mxCell>
        <mxCell id="mt5Nm10OnFp4rmJsfRZl-125" value="" style="endArrow=none;html=1;rounded=0;entryX=0.5;entryY=1;entryDx=0;entryDy=0;exitX=0.5;exitY=0;exitDx=0;exitDy=0;" parent="1" source="mt5Nm10OnFp4rmJsfRZl-119" target="mt5Nm10OnFp4rmJsfRZl-121" edge="1">
          <mxGeometry width="50" height="50" relative="1" as="geometry">
            <mxPoint x="620" y="10" as="sourcePoint" />
            <mxPoint x="670" y="-40" as="targetPoint" />
          </mxGeometry>
        </mxCell>
        <mxCell id="mt5Nm10OnFp4rmJsfRZl-126" value="" style="endArrow=none;html=1;rounded=0;entryX=0.5;entryY=1;entryDx=0;entryDy=0;exitX=0.5;exitY=0;exitDx=0;exitDy=0;" parent="1" source="mt5Nm10OnFp4rmJsfRZl-119" target="mt5Nm10OnFp4rmJsfRZl-122" edge="1">
          <mxGeometry width="50" height="50" relative="1" as="geometry">
            <mxPoint x="620" y="10" as="sourcePoint" />
            <mxPoint x="670" y="-40" as="targetPoint" />
          </mxGeometry>
        </mxCell>
        <mxCell id="mt5Nm10OnFp4rmJsfRZl-127" value="" style="endArrow=none;html=1;rounded=0;entryX=0.5;entryY=1;entryDx=0;entryDy=0;exitX=0.5;exitY=0;exitDx=0;exitDy=0;" parent="1" source="mt5Nm10OnFp4rmJsfRZl-119" target="mt5Nm10OnFp4rmJsfRZl-123" edge="1">
          <mxGeometry width="50" height="50" relative="1" as="geometry">
            <mxPoint x="620" y="10" as="sourcePoint" />
            <mxPoint x="670" y="-40" as="targetPoint" />
          </mxGeometry>
        </mxCell>
        <mxCell id="8B1FqXe5-yf_eUrBlYPG-1" value="TENCHUCVU" style="ellipse;whiteSpace=wrap;html=1;fillColor=#dae8fc;strokeColor=#6c8ebf;" parent="1" vertex="1">
          <mxGeometry x="750" y="360" width="90" height="60" as="geometry" />
        </mxCell>
        <mxCell id="8B1FqXe5-yf_eUrBlYPG-2" value="" style="endArrow=none;html=1;rounded=0;entryX=0;entryY=0.5;entryDx=0;entryDy=0;exitX=1;exitY=0.5;exitDx=0;exitDy=0;" parent="1" source="mt5Nm10OnFp4rmJsfRZl-71" target="8B1FqXe5-yf_eUrBlYPG-1" edge="1">
          <mxGeometry width="50" height="50" relative="1" as="geometry">
            <mxPoint x="630" y="370" as="sourcePoint" />
            <mxPoint x="684" y="400" as="targetPoint" />
          </mxGeometry>
        </mxCell>
        <mxCell id="8B1FqXe5-yf_eUrBlYPG-3" value="THUOC" style="rhombus;whiteSpace=wrap;html=1;fillColor=#f8cecc;strokeColor=#b85450;" parent="1" vertex="1">
          <mxGeometry x="540" y="380" width="80" height="80" as="geometry" />
        </mxCell>
        <mxCell id="8B1FqXe5-yf_eUrBlYPG-4" value="" style="endArrow=none;html=1;rounded=0;entryX=0.5;entryY=1;entryDx=0;entryDy=0;exitX=0.5;exitY=0;exitDx=0;exitDy=0;" parent="1" source="8B1FqXe5-yf_eUrBlYPG-3" target="mt5Nm10OnFp4rmJsfRZl-71" edge="1">
          <mxGeometry width="50" height="50" relative="1" as="geometry">
            <mxPoint x="400" y="450" as="sourcePoint" />
            <mxPoint x="450" y="400" as="targetPoint" />
          </mxGeometry>
        </mxCell>
        <mxCell id="8B1FqXe5-yf_eUrBlYPG-5" value="" style="endArrow=none;html=1;rounded=0;exitX=0.5;exitY=0;exitDx=0;exitDy=0;entryX=0.5;entryY=1;entryDx=0;entryDy=0;" parent="1" source="mt5Nm10OnFp4rmJsfRZl-89" target="8B1FqXe5-yf_eUrBlYPG-3" edge="1">
          <mxGeometry width="50" height="50" relative="1" as="geometry">
            <mxPoint x="550" y="445" as="sourcePoint" />
            <mxPoint x="550" y="520" as="targetPoint" />
          </mxGeometry>
        </mxCell>
        <mxCell id="8B1FqXe5-yf_eUrBlYPG-6" value="n" style="text;html=1;align=center;verticalAlign=middle;resizable=0;points=[];autosize=1;strokeColor=none;fillColor=none;" parent="1" vertex="1">
          <mxGeometry x="549" y="540" width="30" height="30" as="geometry" />
        </mxCell>
        <mxCell id="8B1FqXe5-yf_eUrBlYPG-7" value="1" style="text;html=1;align=center;verticalAlign=middle;resizable=0;points=[];autosize=1;strokeColor=none;fillColor=none;" parent="1" vertex="1">
          <mxGeometry x="545" y="320" width="30" height="30" as="geometry" />
        </mxCell>
        <mxCell id="wpJU1kHZAfLSaxKT_LEj-4" value="IDBAN" style="ellipse;whiteSpace=wrap;html=1;fillColor=#dae8fc;strokeColor=#6c8ebf;" vertex="1" parent="1">
          <mxGeometry x="-50" y="140" width="90" height="60" as="geometry" />
        </mxCell>
        <mxCell id="wpJU1kHZAfLSaxKT_LEj-5" value="" style="endArrow=none;html=1;rounded=0;entryX=0;entryY=0.5;entryDx=0;entryDy=0;exitX=1;exitY=0.5;exitDx=0;exitDy=0;" edge="1" parent="1" source="wpJU1kHZAfLSaxKT_LEj-4" target="mt5Nm10OnFp4rmJsfRZl-3">
          <mxGeometry width="50" height="50" relative="1" as="geometry">
            <mxPoint x="90" y="280" as="sourcePoint" />
            <mxPoint x="140" y="230" as="targetPoint" />
          </mxGeometry>
        </mxCell>
        <mxCell id="wpJU1kHZAfLSaxKT_LEj-6" value="" style="endArrow=none;html=1;rounded=0;entryX=0.5;entryY=1;entryDx=0;entryDy=0;exitX=0.5;exitY=0;exitDx=0;exitDy=0;" edge="1" parent="1" source="mt5Nm10OnFp4rmJsfRZl-25" target="wpJU1kHZAfLSaxKT_LEj-10">
          <mxGeometry width="50" height="50" relative="1" as="geometry">
            <mxPoint x="90" y="280" as="sourcePoint" />
            <mxPoint x="140" y="230" as="targetPoint" />
            <Array as="points">
              <mxPoint x="-200" y="-80" />
            </Array>
          </mxGeometry>
        </mxCell>
        <mxCell id="wpJU1kHZAfLSaxKT_LEj-7" value="n" style="text;html=1;align=center;verticalAlign=middle;resizable=0;points=[];autosize=1;strokeColor=none;fillColor=none;" vertex="1" parent="1">
          <mxGeometry y="-100" width="30" height="30" as="geometry" />
        </mxCell>
        <mxCell id="wpJU1kHZAfLSaxKT_LEj-8" value="n" style="text;html=1;align=center;verticalAlign=middle;resizable=0;points=[];autosize=1;strokeColor=none;fillColor=none;" vertex="1" parent="1">
          <mxGeometry x="-235" y="240" width="30" height="30" as="geometry" />
        </mxCell>
        <mxCell id="wpJU1kHZAfLSaxKT_LEj-10" value="CO" style="rhombus;whiteSpace=wrap;html=1;fillColor=#f8cecc;strokeColor=#b85450;" vertex="1" parent="1">
          <mxGeometry x="-260" y="-110" width="80" height="80" as="geometry" />
        </mxCell>
        <mxCell id="wpJU1kHZAfLSaxKT_LEj-11" value="" style="endArrow=none;html=1;rounded=0;entryX=1;entryY=0.5;entryDx=0;entryDy=0;exitX=0;exitY=0.5;exitDx=0;exitDy=0;" edge="1" parent="1" source="mt5Nm10OnFp4rmJsfRZl-119" target="wpJU1kHZAfLSaxKT_LEj-10">
          <mxGeometry width="50" height="50" relative="1" as="geometry">
            <mxPoint x="400" y="280" as="sourcePoint" />
            <mxPoint x="450" y="230" as="targetPoint" />
          </mxGeometry>
        </mxCell>
        <mxCell id="wpJU1kHZAfLSaxKT_LEj-14" value="TENDOUONG" style="ellipse;whiteSpace=wrap;html=1;fillColor=#dae8fc;strokeColor=#6c8ebf;" vertex="1" parent="1">
          <mxGeometry x="740" y="60" width="100" height="60" as="geometry" />
        </mxCell>
        <mxCell id="wpJU1kHZAfLSaxKT_LEj-15" value="" style="endArrow=none;html=1;rounded=0;entryX=0;entryY=0.5;entryDx=0;entryDy=0;exitX=1;exitY=0.5;exitDx=0;exitDy=0;" edge="1" parent="1" source="mt5Nm10OnFp4rmJsfRZl-104" target="wpJU1kHZAfLSaxKT_LEj-14">
          <mxGeometry width="50" height="50" relative="1" as="geometry">
            <mxPoint x="400" y="280" as="sourcePoint" />
            <mxPoint x="450" y="230" as="targetPoint" />
          </mxGeometry>
        </mxCell>
        <mxCell id="wpJU1kHZAfLSaxKT_LEj-16" style="edgeStyle=orthogonalEdgeStyle;rounded=0;orthogonalLoop=1;jettySize=auto;html=1;exitX=0.5;exitY=1;exitDx=0;exitDy=0;" edge="1" parent="1" source="mt5Nm10OnFp4rmJsfRZl-113" target="mt5Nm10OnFp4rmJsfRZl-113">
          <mxGeometry relative="1" as="geometry" />
        </mxCell>
        <mxCell id="wpJU1kHZAfLSaxKT_LEj-17" value="THUOC&lt;br&gt;" style="rhombus;whiteSpace=wrap;html=1;fillColor=#f8cecc;strokeColor=#b85450;" vertex="1" parent="1">
          <mxGeometry x="520" y="-110" width="80" height="80" as="geometry" />
        </mxCell>
        <mxCell id="wpJU1kHZAfLSaxKT_LEj-18" value="" style="endArrow=none;html=1;rounded=0;entryX=1;entryY=0.5;entryDx=0;entryDy=0;exitX=0;exitY=0.5;exitDx=0;exitDy=0;" edge="1" parent="1" source="wpJU1kHZAfLSaxKT_LEj-17" target="mt5Nm10OnFp4rmJsfRZl-119">
          <mxGeometry width="50" height="50" relative="1" as="geometry">
            <mxPoint x="400" y="280" as="sourcePoint" />
            <mxPoint x="450" y="230" as="targetPoint" />
          </mxGeometry>
        </mxCell>
        <mxCell id="wpJU1kHZAfLSaxKT_LEj-19" value="" style="endArrow=none;html=1;rounded=0;entryX=0.5;entryY=1;entryDx=0;entryDy=0;exitX=0.5;exitY=0;exitDx=0;exitDy=0;" edge="1" parent="1" source="mt5Nm10OnFp4rmJsfRZl-104" target="wpJU1kHZAfLSaxKT_LEj-17">
          <mxGeometry width="50" height="50" relative="1" as="geometry">
            <mxPoint x="400" y="280" as="sourcePoint" />
            <mxPoint x="450" y="230" as="targetPoint" />
          </mxGeometry>
        </mxCell>
        <mxCell id="wpJU1kHZAfLSaxKT_LEj-20" value="1" style="text;html=1;align=center;verticalAlign=middle;resizable=0;points=[];autosize=1;strokeColor=none;fillColor=none;" vertex="1" parent="1">
          <mxGeometry x="560" width="30" height="30" as="geometry" />
        </mxCell>
        <mxCell id="wpJU1kHZAfLSaxKT_LEj-21" value="n" style="text;html=1;align=center;verticalAlign=middle;resizable=0;points=[];autosize=1;strokeColor=none;fillColor=none;" vertex="1" parent="1">
          <mxGeometry x="470" y="-100" width="30" height="30" as="geometry" />
        </mxCell>
        <mxCell id="wpJU1kHZAfLSaxKT_LEj-23" value="" style="endArrow=none;html=1;rounded=0;entryX=0.25;entryY=1;entryDx=0;entryDy=0;exitX=1;exitY=0;exitDx=0;exitDy=0;" edge="1" parent="1" source="mt5Nm10OnFp4rmJsfRZl-9" target="mt5Nm10OnFp4rmJsfRZl-2">
          <mxGeometry width="50" height="50" relative="1" as="geometry">
            <mxPoint x="400" y="560" as="sourcePoint" />
            <mxPoint x="450" y="510" as="targetPoint" />
            <Array as="points">
              <mxPoint x="340" y="578" />
            </Array>
          </mxGeometry>
        </mxCell>
        <mxCell id="wpJU1kHZAfLSaxKT_LEj-26" value="" style="endArrow=none;html=1;rounded=0;entryX=1;entryY=0.5;entryDx=0;entryDy=0;exitX=0;exitY=0.5;exitDx=0;exitDy=0;" edge="1" parent="1" source="wpJU1kHZAfLSaxKT_LEj-27" target="mt5Nm10OnFp4rmJsfRZl-9">
          <mxGeometry width="50" height="50" relative="1" as="geometry">
            <mxPoint x="360" y="608" as="sourcePoint" />
            <mxPoint x="450" y="540" as="targetPoint" />
          </mxGeometry>
        </mxCell>
        <mxCell id="wpJU1kHZAfLSaxKT_LEj-27" value="CO" style="rhombus;whiteSpace=wrap;html=1;fillColor=#f8cecc;strokeColor=#b85450;" vertex="1" parent="1">
          <mxGeometry x="330" y="568" width="80" height="80" as="geometry" />
        </mxCell>
        <mxCell id="wpJU1kHZAfLSaxKT_LEj-28" value="" style="endArrow=none;html=1;rounded=0;entryX=0;entryY=0.5;entryDx=0;entryDy=0;exitX=1;exitY=0.5;exitDx=0;exitDy=0;" edge="1" parent="1" source="wpJU1kHZAfLSaxKT_LEj-27" target="mt5Nm10OnFp4rmJsfRZl-89">
          <mxGeometry width="50" height="50" relative="1" as="geometry">
            <mxPoint x="400" y="590" as="sourcePoint" />
            <mxPoint x="450" y="540" as="targetPoint" />
          </mxGeometry>
        </mxCell>
        <mxCell id="wpJU1kHZAfLSaxKT_LEj-29" value="1" style="text;html=1;align=center;verticalAlign=middle;resizable=0;points=[];autosize=1;strokeColor=none;fillColor=none;" vertex="1" parent="1">
          <mxGeometry x="460" y="610" width="30" height="30" as="geometry" />
        </mxCell>
        <mxCell id="wpJU1kHZAfLSaxKT_LEj-30" value="n" style="text;html=1;align=center;verticalAlign=middle;resizable=0;points=[];autosize=1;strokeColor=none;fillColor=none;" vertex="1" parent="1">
          <mxGeometry x="280" y="608" width="30" height="30" as="geometry" />
        </mxCell>
      </root>
    </mxGraphModel>
  </diagram>
</mxfile>
